<mxfile host="Electron" agent="Mozilla/5.0 (Windows NT 10.0; Win64; x64) AppleWebKit/537.36 (KHTML, like Gecko) draw.io/24.7.5 Chrome/126.0.6478.183 Electron/31.3.0 Safari/537.36" version="24.7.5">
  <diagram id="C5RBs43oDa-KdzZeNtuy" name="Page-1">
    <mxGraphModel dx="2474" dy="1197" grid="0" gridSize="10" guides="1" tooltips="1" connect="1" arrows="1" fold="1" page="0" pageScale="1" pageWidth="827" pageHeight="1169" math="0" shadow="0">
      <root>
        <mxCell id="WIyWlLk6GJQsqaUBKTNV-0" />
        <mxCell id="WIyWlLk6GJQsqaUBKTNV-1" parent="WIyWlLk6GJQsqaUBKTNV-0" />
        <mxCell id="m5VY2FDvkaFgFhENWzP6-0" value="Building" style="swimlane;fontStyle=1;align=center;verticalAlign=top;childLayout=stackLayout;horizontal=1;startSize=26;horizontalStack=0;resizeParent=1;resizeParentMax=0;resizeLast=0;collapsible=1;marginBottom=0;whiteSpace=wrap;html=1;" vertex="1" parent="WIyWlLk6GJQsqaUBKTNV-1">
          <mxGeometry x="-360" y="120" width="160" height="100" as="geometry" />
        </mxCell>
        <mxCell id="m5VY2FDvkaFgFhENWzP6-1" value="+ List&amp;lt;Floors&amp;gt;" style="text;strokeColor=none;fillColor=none;align=left;verticalAlign=top;spacingLeft=4;spacingRight=4;overflow=hidden;rotatable=0;points=[[0,0.5],[1,0.5]];portConstraint=eastwest;whiteSpace=wrap;html=1;" vertex="1" parent="m5VY2FDvkaFgFhENWzP6-0">
          <mxGeometry y="26" width="160" height="26" as="geometry" />
        </mxCell>
        <mxCell id="m5VY2FDvkaFgFhENWzP6-2" value="" style="line;strokeWidth=1;fillColor=none;align=left;verticalAlign=middle;spacingTop=-1;spacingLeft=3;spacingRight=3;rotatable=0;labelPosition=right;points=[];portConstraint=eastwest;strokeColor=inherit;" vertex="1" parent="m5VY2FDvkaFgFhENWzP6-0">
          <mxGeometry y="52" width="160" height="8" as="geometry" />
        </mxCell>
        <mxCell id="m5VY2FDvkaFgFhENWzP6-3" value="+ addFloor()&lt;div&gt;+ removeFloor(id)&lt;/div&gt;" style="text;strokeColor=none;fillColor=none;align=left;verticalAlign=top;spacingLeft=4;spacingRight=4;overflow=hidden;rotatable=0;points=[[0,0.5],[1,0.5]];portConstraint=eastwest;whiteSpace=wrap;html=1;" vertex="1" parent="m5VY2FDvkaFgFhENWzP6-0">
          <mxGeometry y="60" width="160" height="40" as="geometry" />
        </mxCell>
        <mxCell id="m5VY2FDvkaFgFhENWzP6-4" value="Floor" style="swimlane;fontStyle=1;align=center;verticalAlign=top;childLayout=stackLayout;horizontal=1;startSize=26;horizontalStack=0;resizeParent=1;resizeParentMax=0;resizeLast=0;collapsible=1;marginBottom=0;whiteSpace=wrap;html=1;" vertex="1" parent="WIyWlLk6GJQsqaUBKTNV-1">
          <mxGeometry x="-367" y="327" width="160" height="78" as="geometry" />
        </mxCell>
        <mxCell id="m5VY2FDvkaFgFhENWzP6-5" value="+ floorID: int" style="text;strokeColor=none;fillColor=none;align=left;verticalAlign=top;spacingLeft=4;spacingRight=4;overflow=hidden;rotatable=0;points=[[0,0.5],[1,0.5]];portConstraint=eastwest;whiteSpace=wrap;html=1;" vertex="1" parent="m5VY2FDvkaFgFhENWzP6-4">
          <mxGeometry y="26" width="160" height="26" as="geometry" />
        </mxCell>
        <mxCell id="m5VY2FDvkaFgFhENWzP6-8" value="+ externalButtonObj" style="text;strokeColor=none;fillColor=none;align=left;verticalAlign=top;spacingLeft=4;spacingRight=4;overflow=hidden;rotatable=0;points=[[0,0.5],[1,0.5]];portConstraint=eastwest;whiteSpace=wrap;html=1;" vertex="1" parent="m5VY2FDvkaFgFhENWzP6-4">
          <mxGeometry y="52" width="160" height="26" as="geometry" />
        </mxCell>
        <mxCell id="m5VY2FDvkaFgFhENWzP6-9" value="ExternalButton" style="swimlane;fontStyle=1;align=center;verticalAlign=top;childLayout=stackLayout;horizontal=1;startSize=26;horizontalStack=0;resizeParent=1;resizeParentMax=0;resizeLast=0;collapsible=1;marginBottom=0;whiteSpace=wrap;html=1;" vertex="1" parent="WIyWlLk6GJQsqaUBKTNV-1">
          <mxGeometry x="-367" y="583" width="160" height="86" as="geometry" />
        </mxCell>
        <mxCell id="m5VY2FDvkaFgFhENWzP6-10" value="+ List&amp;lt;EcController&amp;gt;" style="text;strokeColor=none;fillColor=none;align=left;verticalAlign=top;spacingLeft=4;spacingRight=4;overflow=hidden;rotatable=0;points=[[0,0.5],[1,0.5]];portConstraint=eastwest;whiteSpace=wrap;html=1;" vertex="1" parent="m5VY2FDvkaFgFhENWzP6-9">
          <mxGeometry y="26" width="160" height="26" as="geometry" />
        </mxCell>
        <mxCell id="m5VY2FDvkaFgFhENWzP6-11" value="" style="line;strokeWidth=1;fillColor=none;align=left;verticalAlign=middle;spacingTop=-1;spacingLeft=3;spacingRight=3;rotatable=0;labelPosition=right;points=[];portConstraint=eastwest;strokeColor=inherit;" vertex="1" parent="m5VY2FDvkaFgFhENWzP6-9">
          <mxGeometry y="52" width="160" height="8" as="geometry" />
        </mxCell>
        <mxCell id="m5VY2FDvkaFgFhENWzP6-12" value="+ submitRequest()" style="text;strokeColor=none;fillColor=none;align=left;verticalAlign=top;spacingLeft=4;spacingRight=4;overflow=hidden;rotatable=0;points=[[0,0.5],[1,0.5]];portConstraint=eastwest;whiteSpace=wrap;html=1;" vertex="1" parent="m5VY2FDvkaFgFhENWzP6-9">
          <mxGeometry y="60" width="160" height="26" as="geometry" />
        </mxCell>
        <mxCell id="m5VY2FDvkaFgFhENWzP6-13" value="ElevatorCar" style="swimlane;fontStyle=1;align=center;verticalAlign=top;childLayout=stackLayout;horizontal=1;startSize=26;horizontalStack=0;resizeParent=1;resizeParentMax=0;resizeLast=0;collapsible=1;marginBottom=0;whiteSpace=wrap;html=1;" vertex="1" parent="WIyWlLk6GJQsqaUBKTNV-1">
          <mxGeometry x="204" y="224" width="160" height="242" as="geometry" />
        </mxCell>
        <mxCell id="m5VY2FDvkaFgFhENWzP6-14" value="+ EcID" style="text;strokeColor=none;fillColor=none;align=left;verticalAlign=top;spacingLeft=4;spacingRight=4;overflow=hidden;rotatable=0;points=[[0,0.5],[1,0.5]];portConstraint=eastwest;whiteSpace=wrap;html=1;" vertex="1" parent="m5VY2FDvkaFgFhENWzP6-13">
          <mxGeometry y="26" width="160" height="26" as="geometry" />
        </mxCell>
        <mxCell id="m5VY2FDvkaFgFhENWzP6-17" value="+ direction" style="text;strokeColor=none;fillColor=none;align=left;verticalAlign=top;spacingLeft=4;spacingRight=4;overflow=hidden;rotatable=0;points=[[0,0.5],[1,0.5]];portConstraint=eastwest;whiteSpace=wrap;html=1;" vertex="1" parent="m5VY2FDvkaFgFhENWzP6-13">
          <mxGeometry y="52" width="160" height="26" as="geometry" />
        </mxCell>
        <mxCell id="m5VY2FDvkaFgFhENWzP6-18" value="+ state" style="text;strokeColor=none;fillColor=none;align=left;verticalAlign=top;spacingLeft=4;spacingRight=4;overflow=hidden;rotatable=0;points=[[0,0.5],[1,0.5]];portConstraint=eastwest;whiteSpace=wrap;html=1;" vertex="1" parent="m5VY2FDvkaFgFhENWzP6-13">
          <mxGeometry y="78" width="160" height="26" as="geometry" />
        </mxCell>
        <mxCell id="m5VY2FDvkaFgFhENWzP6-19" value="+ currentFloor" style="text;strokeColor=none;fillColor=none;align=left;verticalAlign=top;spacingLeft=4;spacingRight=4;overflow=hidden;rotatable=0;points=[[0,0.5],[1,0.5]];portConstraint=eastwest;whiteSpace=wrap;html=1;" vertex="1" parent="m5VY2FDvkaFgFhENWzP6-13">
          <mxGeometry y="104" width="160" height="26" as="geometry" />
        </mxCell>
        <mxCell id="m5VY2FDvkaFgFhENWzP6-20" value="+ capacity" style="text;strokeColor=none;fillColor=none;align=left;verticalAlign=top;spacingLeft=4;spacingRight=4;overflow=hidden;rotatable=0;points=[[0,0.5],[1,0.5]];portConstraint=eastwest;whiteSpace=wrap;html=1;" vertex="1" parent="m5VY2FDvkaFgFhENWzP6-13">
          <mxGeometry y="130" width="160" height="26" as="geometry" />
        </mxCell>
        <mxCell id="m5VY2FDvkaFgFhENWzP6-33" value="+ internalButtonObj" style="text;strokeColor=none;fillColor=none;align=left;verticalAlign=top;spacingLeft=4;spacingRight=4;overflow=hidden;rotatable=0;points=[[0,0.5],[1,0.5]];portConstraint=eastwest;whiteSpace=wrap;html=1;" vertex="1" parent="m5VY2FDvkaFgFhENWzP6-13">
          <mxGeometry y="156" width="160" height="26" as="geometry" />
        </mxCell>
        <mxCell id="m5VY2FDvkaFgFhENWzP6-15" value="" style="line;strokeWidth=1;fillColor=none;align=left;verticalAlign=middle;spacingTop=-1;spacingLeft=3;spacingRight=3;rotatable=0;labelPosition=right;points=[];portConstraint=eastwest;strokeColor=inherit;" vertex="1" parent="m5VY2FDvkaFgFhENWzP6-13">
          <mxGeometry y="182" width="160" height="8" as="geometry" />
        </mxCell>
        <mxCell id="m5VY2FDvkaFgFhENWzP6-16" value="+ move()" style="text;strokeColor=none;fillColor=none;align=left;verticalAlign=top;spacingLeft=4;spacingRight=4;overflow=hidden;rotatable=0;points=[[0,0.5],[1,0.5]];portConstraint=eastwest;whiteSpace=wrap;html=1;" vertex="1" parent="m5VY2FDvkaFgFhENWzP6-13">
          <mxGeometry y="190" width="160" height="26" as="geometry" />
        </mxCell>
        <mxCell id="m5VY2FDvkaFgFhENWzP6-34" value="+ pressButton()" style="text;strokeColor=none;fillColor=none;align=left;verticalAlign=top;spacingLeft=4;spacingRight=4;overflow=hidden;rotatable=0;points=[[0,0.5],[1,0.5]];portConstraint=eastwest;whiteSpace=wrap;html=1;" vertex="1" parent="m5VY2FDvkaFgFhENWzP6-13">
          <mxGeometry y="216" width="160" height="26" as="geometry" />
        </mxCell>
        <mxCell id="m5VY2FDvkaFgFhENWzP6-21" value="Direction" style="swimlane;fontStyle=0;childLayout=stackLayout;horizontal=1;startSize=26;fillColor=none;horizontalStack=0;resizeParent=1;resizeParentMax=0;resizeLast=0;collapsible=1;marginBottom=0;whiteSpace=wrap;html=1;" vertex="1" parent="WIyWlLk6GJQsqaUBKTNV-1">
          <mxGeometry x="591" y="64" width="140" height="78" as="geometry" />
        </mxCell>
        <mxCell id="m5VY2FDvkaFgFhENWzP6-22" value="+ UP" style="text;strokeColor=none;fillColor=none;align=left;verticalAlign=top;spacingLeft=4;spacingRight=4;overflow=hidden;rotatable=0;points=[[0,0.5],[1,0.5]];portConstraint=eastwest;whiteSpace=wrap;html=1;" vertex="1" parent="m5VY2FDvkaFgFhENWzP6-21">
          <mxGeometry y="26" width="140" height="26" as="geometry" />
        </mxCell>
        <mxCell id="m5VY2FDvkaFgFhENWzP6-23" value="+ DOWN" style="text;strokeColor=none;fillColor=none;align=left;verticalAlign=top;spacingLeft=4;spacingRight=4;overflow=hidden;rotatable=0;points=[[0,0.5],[1,0.5]];portConstraint=eastwest;whiteSpace=wrap;html=1;" vertex="1" parent="m5VY2FDvkaFgFhENWzP6-21">
          <mxGeometry y="52" width="140" height="26" as="geometry" />
        </mxCell>
        <mxCell id="m5VY2FDvkaFgFhENWzP6-25" value="State" style="swimlane;fontStyle=0;childLayout=stackLayout;horizontal=1;startSize=26;fillColor=none;horizontalStack=0;resizeParent=1;resizeParentMax=0;resizeLast=0;collapsible=1;marginBottom=0;whiteSpace=wrap;html=1;" vertex="1" parent="WIyWlLk6GJQsqaUBKTNV-1">
          <mxGeometry x="587" y="192" width="140" height="78" as="geometry" />
        </mxCell>
        <mxCell id="m5VY2FDvkaFgFhENWzP6-26" value="+ MOVING" style="text;strokeColor=none;fillColor=none;align=left;verticalAlign=top;spacingLeft=4;spacingRight=4;overflow=hidden;rotatable=0;points=[[0,0.5],[1,0.5]];portConstraint=eastwest;whiteSpace=wrap;html=1;" vertex="1" parent="m5VY2FDvkaFgFhENWzP6-25">
          <mxGeometry y="26" width="140" height="26" as="geometry" />
        </mxCell>
        <mxCell id="m5VY2FDvkaFgFhENWzP6-27" value="+ IDLE" style="text;strokeColor=none;fillColor=none;align=left;verticalAlign=top;spacingLeft=4;spacingRight=4;overflow=hidden;rotatable=0;points=[[0,0.5],[1,0.5]];portConstraint=eastwest;whiteSpace=wrap;html=1;" vertex="1" parent="m5VY2FDvkaFgFhENWzP6-25">
          <mxGeometry y="52" width="140" height="26" as="geometry" />
        </mxCell>
        <mxCell id="m5VY2FDvkaFgFhENWzP6-29" value="EcController" style="swimlane;fontStyle=1;align=center;verticalAlign=top;childLayout=stackLayout;horizontal=1;startSize=26;horizontalStack=0;resizeParent=1;resizeParentMax=0;resizeLast=0;collapsible=1;marginBottom=0;whiteSpace=wrap;html=1;" vertex="1" parent="WIyWlLk6GJQsqaUBKTNV-1">
          <mxGeometry x="201" y="559" width="160" height="112" as="geometry" />
        </mxCell>
        <mxCell id="m5VY2FDvkaFgFhENWzP6-30" value="+ elevatorCarObj" style="text;strokeColor=none;fillColor=none;align=left;verticalAlign=top;spacingLeft=4;spacingRight=4;overflow=hidden;rotatable=0;points=[[0,0.5],[1,0.5]];portConstraint=eastwest;whiteSpace=wrap;html=1;" vertex="1" parent="m5VY2FDvkaFgFhENWzP6-29">
          <mxGeometry y="26" width="160" height="26" as="geometry" />
        </mxCell>
        <mxCell id="m5VY2FDvkaFgFhENWzP6-31" value="" style="line;strokeWidth=1;fillColor=none;align=left;verticalAlign=middle;spacingTop=-1;spacingLeft=3;spacingRight=3;rotatable=0;labelPosition=right;points=[];portConstraint=eastwest;strokeColor=inherit;" vertex="1" parent="m5VY2FDvkaFgFhENWzP6-29">
          <mxGeometry y="52" width="160" height="8" as="geometry" />
        </mxCell>
        <mxCell id="m5VY2FDvkaFgFhENWzP6-32" value="+ acceptRequest()" style="text;strokeColor=none;fillColor=none;align=left;verticalAlign=top;spacingLeft=4;spacingRight=4;overflow=hidden;rotatable=0;points=[[0,0.5],[1,0.5]];portConstraint=eastwest;whiteSpace=wrap;html=1;" vertex="1" parent="m5VY2FDvkaFgFhENWzP6-29">
          <mxGeometry y="60" width="160" height="26" as="geometry" />
        </mxCell>
        <mxCell id="m5VY2FDvkaFgFhENWzP6-39" value="+ controlElevator()" style="text;strokeColor=none;fillColor=none;align=left;verticalAlign=top;spacingLeft=4;spacingRight=4;overflow=hidden;rotatable=0;points=[[0,0.5],[1,0.5]];portConstraint=eastwest;whiteSpace=wrap;html=1;" vertex="1" parent="m5VY2FDvkaFgFhENWzP6-29">
          <mxGeometry y="86" width="160" height="26" as="geometry" />
        </mxCell>
        <mxCell id="m5VY2FDvkaFgFhENWzP6-35" value="InternalButton" style="swimlane;fontStyle=1;align=center;verticalAlign=top;childLayout=stackLayout;horizontal=1;startSize=26;horizontalStack=0;resizeParent=1;resizeParentMax=0;resizeLast=0;collapsible=1;marginBottom=0;whiteSpace=wrap;html=1;" vertex="1" parent="WIyWlLk6GJQsqaUBKTNV-1">
          <mxGeometry x="204" y="75" width="160" height="52" as="geometry" />
        </mxCell>
        <mxCell id="m5VY2FDvkaFgFhENWzP6-36" value="+ EcControllerObj" style="text;strokeColor=none;fillColor=none;align=left;verticalAlign=top;spacingLeft=4;spacingRight=4;overflow=hidden;rotatable=0;points=[[0,0.5],[1,0.5]];portConstraint=eastwest;whiteSpace=wrap;html=1;" vertex="1" parent="m5VY2FDvkaFgFhENWzP6-35">
          <mxGeometry y="26" width="160" height="26" as="geometry" />
        </mxCell>
        <mxCell id="m5VY2FDvkaFgFhENWzP6-40" value="Use" style="endArrow=open;endSize=12;dashed=1;html=1;rounded=0;exitX=0.45;exitY=0.983;exitDx=0;exitDy=0;exitPerimeter=0;entryX=0.5;entryY=0;entryDx=0;entryDy=0;" edge="1" parent="WIyWlLk6GJQsqaUBKTNV-1" source="m5VY2FDvkaFgFhENWzP6-3" target="m5VY2FDvkaFgFhENWzP6-4">
          <mxGeometry width="160" relative="1" as="geometry">
            <mxPoint x="-294" y="224" as="sourcePoint" />
            <mxPoint x="-134" y="224" as="targetPoint" />
          </mxGeometry>
        </mxCell>
        <mxCell id="m5VY2FDvkaFgFhENWzP6-41" value="Use" style="endArrow=open;endSize=12;dashed=1;html=1;rounded=0;exitX=0.498;exitY=0.987;exitDx=0;exitDy=0;exitPerimeter=0;entryX=0.5;entryY=0;entryDx=0;entryDy=0;" edge="1" parent="WIyWlLk6GJQsqaUBKTNV-1" source="m5VY2FDvkaFgFhENWzP6-8" target="m5VY2FDvkaFgFhENWzP6-9">
          <mxGeometry width="160" relative="1" as="geometry">
            <mxPoint x="-304" y="456" as="sourcePoint" />
            <mxPoint x="-144" y="456" as="targetPoint" />
          </mxGeometry>
        </mxCell>
        <mxCell id="m5VY2FDvkaFgFhENWzP6-42" value="Use" style="endArrow=open;endSize=12;dashed=1;html=1;rounded=0;entryX=0.483;entryY=1.064;entryDx=0;entryDy=0;entryPerimeter=0;exitX=0.5;exitY=0;exitDx=0;exitDy=0;" edge="1" parent="WIyWlLk6GJQsqaUBKTNV-1" source="m5VY2FDvkaFgFhENWzP6-13" target="m5VY2FDvkaFgFhENWzP6-36">
          <mxGeometry width="160" relative="1" as="geometry">
            <mxPoint x="287" y="221" as="sourcePoint" />
            <mxPoint x="464" y="202" as="targetPoint" />
          </mxGeometry>
        </mxCell>
        <mxCell id="m5VY2FDvkaFgFhENWzP6-43" value="Use" style="endArrow=open;endSize=12;dashed=1;html=1;rounded=0;exitX=0.5;exitY=0;exitDx=0;exitDy=0;entryX=0.483;entryY=1.179;entryDx=0;entryDy=0;entryPerimeter=0;" edge="1" parent="WIyWlLk6GJQsqaUBKTNV-1" source="m5VY2FDvkaFgFhENWzP6-29" target="m5VY2FDvkaFgFhENWzP6-34">
          <mxGeometry width="160" relative="1" as="geometry">
            <mxPoint x="284" y="553" as="sourcePoint" />
            <mxPoint x="444" y="553" as="targetPoint" />
          </mxGeometry>
        </mxCell>
        <mxCell id="m5VY2FDvkaFgFhENWzP6-44" value="Use" style="endArrow=open;endSize=12;dashed=1;html=1;rounded=0;entryX=0.006;entryY=0.375;entryDx=0;entryDy=0;entryPerimeter=0;" edge="1" parent="WIyWlLk6GJQsqaUBKTNV-1">
          <mxGeometry width="160" relative="1" as="geometry">
            <mxPoint x="-207" y="659" as="sourcePoint" />
            <mxPoint x="199.96000000000004" y="659" as="targetPoint" />
          </mxGeometry>
        </mxCell>
        <mxCell id="m5VY2FDvkaFgFhENWzP6-45" value="Use" style="endArrow=open;endSize=12;dashed=1;html=1;rounded=0;exitX=-0.025;exitY=0.115;exitDx=0;exitDy=0;exitPerimeter=0;entryX=-0.002;entryY=1.167;entryDx=0;entryDy=0;entryPerimeter=0;" edge="1" parent="WIyWlLk6GJQsqaUBKTNV-1" source="m5VY2FDvkaFgFhENWzP6-36" target="m5VY2FDvkaFgFhENWzP6-30">
          <mxGeometry width="160" relative="1" as="geometry">
            <mxPoint x="-26" y="165" as="sourcePoint" />
            <mxPoint x="134" y="165" as="targetPoint" />
            <Array as="points">
              <mxPoint x="-9" y="104" />
              <mxPoint x="-16" y="615" />
            </Array>
          </mxGeometry>
        </mxCell>
      </root>
    </mxGraphModel>
  </diagram>
</mxfile>
